<svg width="73" height="73" viewBox="0 0 73 73" fill="none" xmlns="http://www.w3.org/2000/svg">
<circle cx="36.5" cy="36.5" r="35.5" fill="#171520" stroke="#82828A" stroke-width="2"/>
<path fill-rule="evenodd" clip-rule="evenodd" d="M27.5469 19.2169H36.0727V12.3962H40.1224V19.2169H43.5327V12.3962H47.7956V19.2169C50.9928 19.2879 57.515 20.7941 58.0266 26.2506C58.4816 31.1048 55.4281 32.8889 54.5983 33.3737C54.4953 33.4339 54.4266 33.474 54.4031 33.4976C54.3673 33.5334 54.5299 33.5872 54.8233 33.6843C56.2767 34.1655 60.939 35.7089 60.5843 41.3839C60.158 48.2045 55.682 50.5491 47.7956 50.9754V58.0092H43.5327V51.1886H40.1224V58.0092H36.0727V50.9754H27.5469L28.1863 46.0731H31.5966C32.0229 46.0731 32.8755 45.8173 32.8755 44.7942V25.3981C32.7334 24.8297 32.1508 23.6929 30.9572 23.6929H27.5469V19.2169ZM40.3348 24.119V32.4316C43.7451 32.7158 50.4805 32.2611 50.1395 28.1688C49.7984 24.0764 43.4609 23.7638 40.3348 24.119ZM40.3348 36.9077V46.0729C44.3846 46.3571 52.0578 45.8734 52.0578 41.5969C52.0578 36.2682 44.1004 36.6945 40.3348 36.9077Z" fill="#AAA7A4"/>
<path d="M21.7773 34.041H25.3027V36.5898H21.7773V40.5742H19.0918V36.5898H15.5566V34.041H19.0918V30.2227H21.7773V34.041Z" fill="#AAA7A4"/>
</svg>
