<svg width="15" height="15" viewBox="0 0 15 15" fill="none" xmlns="http://www.w3.org/2000/svg">
<path d="M9.8002 7.44224C9.8002 9.46081 9.50236 11.2708 9.03344 12.5618C8.79838 13.2089 8.52793 13.7044 8.24774 14.0307C7.9664 14.3583 7.71241 14.4755 7.50025 14.4755C7.28809 14.4755 7.0341 14.3583 6.75276 14.0307C6.47257 13.7044 6.20212 13.2089 5.96706 12.5618C5.49814 11.2708 5.20029 9.46081 5.20029 7.44224C5.20029 5.42368 5.49814 3.61371 5.96706 2.32273C6.20212 1.67559 6.47257 1.18005 6.75276 0.853773C7.0341 0.526168 7.28809 0.409033 7.50025 0.409033C7.71241 0.409033 7.9664 0.526168 8.24774 0.853773C8.52793 1.18005 8.79838 1.67559 9.03344 2.32273C9.50236 3.61371 9.8002 5.42368 9.8002 7.44224Z" stroke="#AAA7A4" stroke-width="0.8"/>
<path d="M14.5998 7.44224C14.5998 11.3232 11.4244 14.4755 7.49988 14.4755C3.57535 14.4755 0.4 11.3232 0.4 7.44224C0.4 3.56127 3.57535 0.409033 7.49988 0.409033C11.4244 0.409033 14.5998 3.56127 14.5998 7.44224Z" stroke="#AAA7A4" stroke-width="0.8"/>
<path d="M1.7998 2.77563C2.42202 3.53118 4.41976 5.06226 7.43305 5.14226C10.4463 5.22226 12.533 3.59784 13.1996 2.77563" stroke="#AAA7A4" stroke-width="0.8"/>
<path d="M13.1997 12.1117C12.5775 11.3562 10.5797 9.82507 7.56647 9.74507C4.55318 9.66507 2.46655 11.2895 1.79989 12.1117" stroke="#AAA7A4" stroke-width="0.8"/>
<path d="M0 7.37555L14.8664 7.37555" stroke="#AAA7A4" stroke-width="0.8"/>
</svg>
