<svg width="19" height="17" viewBox="0 0 19 17" fill="none" xmlns="http://www.w3.org/2000/svg">
<path d="M0 3H3.23063L3.56733 4.75646M15.4004 12.8173H5.11255L4.53534 9.80627M3.56733 4.75646L4.53534 9.80627M3.56733 4.75646H6M4.53534 9.80627H15.2749L17 4.75646H13.8179" stroke="#A4A4AA" stroke-width="1.5"/>
<circle cx="6.24197" cy="15.3266" r="1.00369" fill="#A4A4AA"/>
<circle cx="14.3963" cy="15.3266" r="1.00369" fill="#A4A4AA"/>
<path d="M12.5 4C12.5 5.38071 11.3807 6.5 10 6.5C8.61929 6.5 7.5 5.38071 7.5 4C7.5 2.61929 8.61929 1.5 10 1.5C11.3807 1.5 12.5 2.61929 12.5 4Z" stroke="#A4A4AA"/>
<path d="M6.5 7.5L13.5 0.5" stroke="#A4A4AA" stroke-width="0.8"/>
</svg>
