<svg width="14" height="20" viewBox="0 0 14 20" fill="none" xmlns="http://www.w3.org/2000/svg">
<path fill-rule="evenodd" clip-rule="evenodd" d="M0 2.88865H3.61081V0H5.32594V2.88865H6.77026V0H8.57566V2.88865C9.92972 2.91874 12.692 3.55664 12.9086 5.86756C13.1014 7.92339 11.8081 8.67898 11.4567 8.8843C11.4131 8.90978 11.384 8.92678 11.374 8.93675C11.3589 8.95191 11.4278 8.97471 11.552 9.01585C12.1676 9.21962 14.1421 9.87329 13.9919 12.2767C13.8113 15.1654 11.9157 16.1584 8.57566 16.3389V19.3178H6.77026V16.4292H5.32594V19.3178H3.61081V16.3389H0L0.27081 14.2627H1.71513C1.89567 14.2627 2.25675 14.1544 2.25675 13.7211V5.50648C2.19657 5.26576 1.94984 4.78432 1.44432 4.78432H0V2.88865ZM5.41607 4.96484V8.48538C6.86039 8.60574 9.71293 8.41316 9.56849 6.67997C9.42406 4.94679 6.74003 4.81439 5.41607 4.96484ZM5.41607 10.381V14.2627C7.1312 14.383 10.3809 14.1782 10.3809 12.367C10.3809 10.1102 7.01084 10.2908 5.41607 10.381Z" fill="#AAA7A4"/>
</svg>
