<svg width="19" height="18" viewBox="0 0 19 18" fill="none" xmlns="http://www.w3.org/2000/svg">
<path fill-rule="evenodd" clip-rule="evenodd" d="M7 1.23799H8.54749V0H9.28255V1.23799H9.90154V0H10.6753V1.23799C11.2556 1.25089 12.4394 1.52428 12.5323 2.51467C12.6149 3.39574 12.0606 3.71956 11.91 3.80756C11.8913 3.81848 11.8789 3.82576 11.8746 3.83003C11.8681 3.83653 11.8976 3.8463 11.9509 3.86393C12.2147 3.95127 13.0609 4.23141 12.9965 5.26146C12.9191 6.49945 12.1067 6.92501 10.6753 7.00239V8.27906H9.90154V7.04107H9.28255V8.27906H8.54749V7.00239H7L7.11606 6.11258H7.73506C7.81243 6.11258 7.96718 6.06615 7.96718 5.88046V2.35992C7.94139 2.25675 7.83564 2.05042 7.619 2.05042H7V1.23799ZM9.32105 2.12777V3.63657C9.94004 3.68815 11.1626 3.60562 11.1007 2.86282C11.0388 2.12003 9.88846 2.06329 9.32105 2.12777ZM9.32105 4.449V6.11255C10.0561 6.16413 11.4488 6.07633 11.4488 5.30012C11.4488 4.33294 10.0045 4.41031 9.32105 4.449Z" fill="#AAA7A4"/>
<path d="M0 4.5H3.23063L3.56733 6.25646M15.4004 14.3173H5.11255L4.53534 11.3063M3.56733 6.25646L4.53534 11.3063M3.56733 6.25646H6M4.53534 11.3063H15.2749L17 6.25646H13.8179" stroke="#A4A4AA" stroke-width="1.5"/>
<circle cx="6.24197" cy="16.8266" r="1.00369" fill="#A4A4AA"/>
<circle cx="14.3963" cy="16.8266" r="1.00369" fill="#A4A4AA"/>
</svg>
