<svg width="16" height="20" viewBox="0 0 16 20" fill="none" xmlns="http://www.w3.org/2000/svg">
<path d="M1.42871 14.4286L15.0001 8.71429" stroke="#A4A4AA"/>
<path d="M8.66725 13.3334L11.3066 17.9048H6.02793L8.66725 13.3334Z" fill="#C4C4C4"/>
<path fill-rule="evenodd" clip-rule="evenodd" d="M0 5.23799H1.54749V4H2.28255V5.23799H2.90154V4H3.67528V5.23799C4.25559 5.25089 5.43942 5.52428 5.53227 6.51467C5.61487 7.39574 5.06062 7.71956 4.91002 7.80756C4.89133 7.81848 4.87886 7.82576 4.87459 7.83003C4.86809 7.83653 4.89761 7.8463 4.95086 7.86393C5.21467 7.95127 6.0609 8.23141 5.99652 9.26146C5.91914 10.4995 5.10671 10.925 3.67528 11.0024V12.2791H2.90154V11.0411H2.28255V12.2791H1.54749V11.0024H0L0.116062 10.1126H0.735057C0.812431 10.1126 0.96718 10.0662 0.96718 9.88046V6.35992C0.941389 6.25675 0.835644 6.05042 0.618995 6.05042H0V5.23799ZM2.32115 6.12778V7.63658C2.94015 7.68816 4.16266 7.60563 4.10076 6.86284C4.03886 6.12004 2.88856 6.0633 2.32115 6.12778ZM2.32115 8.44901V10.1126C3.05621 10.1641 4.44895 10.0763 4.44895 9.30013C4.44895 8.33295 3.00462 8.41032 2.32115 8.44901Z" fill="#AAA7A4"/>
<path fill-rule="evenodd" clip-rule="evenodd" d="M9 1.23799H10.5475V0H11.2825V1.23799H11.9015V0H12.6753V1.23799C13.2556 1.25089 14.4394 1.52428 14.5323 2.51467C14.6149 3.39574 14.0606 3.71956 13.91 3.80756C13.8913 3.81848 13.8789 3.82576 13.8746 3.83003C13.8681 3.83653 13.8976 3.8463 13.9509 3.86393C14.2147 3.95127 15.0609 4.23141 14.9965 5.26146C14.9191 6.49945 14.1067 6.92501 12.6753 7.00239V8.27906H11.9015V7.04107H11.2825V8.27906H10.5475V7.00239H9L9.11606 6.11258H9.73506C9.81243 6.11258 9.96718 6.06615 9.96718 5.88046V2.35992C9.94139 2.25675 9.83564 2.05042 9.619 2.05042H9V1.23799ZM11.3211 2.12778V3.63658C11.9401 3.68816 13.1627 3.60563 13.1008 2.86284C13.0389 2.12004 11.8886 2.0633 11.3211 2.12778ZM11.3211 4.44901V6.11256C12.0562 6.16414 13.4489 6.07635 13.4489 5.30013C13.4489 4.33295 12.0046 4.41032 11.3211 4.44901Z" fill="#AAA7A4"/>
</svg>
