<svg width="35" height="46" viewBox="0 0 35 46" fill="none" xmlns="http://www.w3.org/2000/svg">
<path d="M8.73047 12.9609H5.45898C5.49154 13.918 5.74544 14.6374 6.2207 15.1191C6.70247 15.6009 7.44792 15.8418 8.45703 15.8418C9.14062 15.8418 9.75911 15.7409 10.3125 15.5391L10.6641 17.9023C9.85677 18.0911 9.02344 18.1855 8.16406 18.1855C6.45182 18.1855 5.0944 17.7266 4.0918 16.8086C3.0957 15.8841 2.57161 14.6016 2.51953 12.9609H0.869141V11.4766H2.51953V10.2656H0.869141V8.78125H2.53906C2.64974 7.14062 3.2194 5.86784 4.24805 4.96289C5.2832 4.05143 6.65365 3.5957 8.35938 3.5957C9.04297 3.5957 9.8112 3.69661 10.6641 3.89844L10.3125 6.27148C9.70052 6.06315 9.09831 5.95898 8.50586 5.95898C6.66341 5.95898 5.6543 6.89974 5.47852 8.78125H8.73047V10.2656H5.45898V11.4766H8.73047V12.9609Z" fill="#A4A4AA"/>
<path d="M30.7148 37.2598C30.7148 36.7259 30.5651 36.3027 30.2656 35.9902C29.9727 35.6712 29.4714 35.3783 28.7617 35.1113C28.0521 34.8444 27.4401 34.5807 26.9258 34.3203C26.4115 34.0534 25.9688 33.7507 25.5977 33.4121C25.2331 33.0671 24.9466 32.6634 24.7383 32.2012C24.5365 31.7389 24.4355 31.1888 24.4355 30.5508C24.4355 29.4505 24.7871 28.5488 25.4902 27.8457C26.1934 27.1426 27.1276 26.7324 28.293 26.6152V24.5254H29.8555V26.6445C31.0078 26.8073 31.9095 27.2891 32.5605 28.0898C33.2116 28.8841 33.5371 29.916 33.5371 31.1855H30.7148C30.7148 30.4043 30.5521 29.8216 30.2266 29.4375C29.9076 29.0469 29.4779 28.8516 28.9375 28.8516C28.4036 28.8516 27.9902 29.0046 27.6973 29.3105C27.4043 29.61 27.2578 30.0267 27.2578 30.5605C27.2578 31.0553 27.401 31.4525 27.6875 31.752C27.974 32.0514 28.5046 32.3574 29.2793 32.6699C30.0605 32.9824 30.7018 33.2786 31.2031 33.5586C31.7044 33.832 32.1276 34.1445 32.4727 34.4961C32.8177 34.8411 33.0814 35.2383 33.2637 35.6875C33.446 36.1302 33.5371 36.6478 33.5371 37.2402C33.5371 38.347 33.1921 39.2454 32.502 39.9355C31.8118 40.6257 30.8613 41.0326 29.6504 41.1562V43.0996H28.0977V41.166C26.763 41.0228 25.7279 40.5508 24.9922 39.75C24.263 38.9427 23.8984 37.8717 23.8984 36.5371H26.7207C26.7207 37.3118 26.903 37.9076 27.2676 38.3242C27.6387 38.7344 28.1693 38.9395 28.8594 38.9395C29.4323 38.9395 29.8848 38.7897 30.2168 38.4902C30.5488 38.1842 30.7148 37.7741 30.7148 37.2598Z" fill="#A4A4AA"/>
<line x1="2.5871" y1="43.718" x2="30.5871" y2="2.71802" stroke="#A4A4AA"/>
</svg>
